<mxfile host="app.diagrams.net" modified="2024-05-17T02:19:31.948Z" agent="Mozilla/5.0 (Windows NT 10.0; Win64; x64; rv:127.0) Gecko/20100101 Firefox/127.0" version="24.4.0" etag="uQnT6iaekv679oFLnR5P" type="github">
  <diagram name="Page-1" id="Lw_mYggWUpvynAE3jcXI">
    <mxGraphModel>
      <root>
        <mxCell id="0" />
        <mxCell id="1" parent="0" />
      </root>
    </mxGraphModel>
  </diagram>
</mxfile>
